<svg id="visual" viewBox="0 0 900 600" width="900" height="600" xmlns="http://www.w3.org/2000/svg" xmlns:xlink="http://www.w3.org/1999/xlink" version="1.1"><rect x="0" y="0" width="900" height="600" fill="#fbf9fa"></rect><path d="M0 497L21.5 494.3C43 491.7 86 486.3 128.8 479.5C171.7 472.7 214.3 464.3 257.2 463.3C300 462.3 343 468.7 385.8 477.5C428.7 486.3 471.3 497.7 514.2 497.2C557 496.7 600 484.3 642.8 478.5C685.7 472.7 728.3 473.3 771.2 477.8C814 482.3 857 490.7 878.5 494.8L900 499L900 601L878.5 601C857 601 814 601 771.2 601C728.3 601 685.7 601 642.8 601C600 601 557 601 514.2 601C471.3 601 428.7 601 385.8 601C343 601 300 601 257.2 601C214.3 601 171.7 601 128.8 601C86 601 43 601 21.5 601L0 601Z" fill="#69affa"></path><path d="M0 505L21.5 505.7C43 506.3 86 507.7 128.8 510.7C171.7 513.7 214.3 518.3 257.2 522C300 525.7 343 528.3 385.8 528.8C428.7 529.3 471.3 527.7 514.2 521C557 514.3 600 502.7 642.8 495.5C685.7 488.3 728.3 485.7 771.2 490.3C814 495 857 507 878.5 513L900 519L900 601L878.5 601C857 601 814 601 771.2 601C728.3 601 685.7 601 642.8 601C600 601 557 601 514.2 601C471.3 601 428.7 601 385.8 601C343 601 300 601 257.2 601C214.3 601 171.7 601 128.8 601C86 601 43 601 21.5 601L0 601Z" fill="#3a8aef"></path><path d="M0 528L21.5 533C43 538 86 548 128.8 551.5C171.7 555 214.3 552 257.2 547.5C300 543 343 537 385.8 532.7C428.7 528.3 471.3 525.7 514.2 528C557 530.3 600 537.7 642.8 541.2C685.7 544.7 728.3 544.3 771.2 539.3C814 534.3 857 524.7 878.5 519.8L900 515L900 601L878.5 601C857 601 814 601 771.2 601C728.3 601 685.7 601 642.8 601C600 601 557 601 514.2 601C471.3 601 428.7 601 385.8 601C343 601 300 601 257.2 601C214.3 601 171.7 601 128.8 601C86 601 43 601 21.5 601L0 601Z" fill="#1a63df"></path><path d="M0 570L21.5 571.5C43 573 86 576 128.8 573.7C171.7 571.3 214.3 563.7 257.2 561C300 558.3 343 560.7 385.8 564C428.7 567.3 471.3 571.7 514.2 572.2C557 572.7 600 569.3 642.8 569C685.7 568.7 728.3 571.3 771.2 572.7C814 574 857 574 878.5 574L900 574L900 601L878.5 601C857 601 814 601 771.2 601C728.3 601 685.7 601 642.8 601C600 601 557 601 514.2 601C471.3 601 428.7 601 385.8 601C343 601 300 601 257.2 601C214.3 601 171.7 601 128.8 601C86 601 43 601 21.5 601L0 601Z" fill="#2438c7"></path></svg>